# Blender 5.1.0 Alpha
# www.blender.org
mtllib kiosk.mtl
g Plane_Plane
v -1.000000 -2.249799 0.947348
v -0.928581 -2.263322 0.947348
v -0.928581 -2.249799 1.018767
v 0.928581 -2.249799 1.018767
v 0.928581 -2.263322 0.947348
v 1.000000 -2.249799 0.947348
v -1.000000 -2.249799 -0.909813
v -0.928581 -2.249799 -0.981233
v -0.928581 -2.263322 -0.909813
v 1.000000 -2.249799 -0.909813
v 0.928581 -2.263322 -0.909813
v 0.928581 -2.249799 -0.981233
v -1.000000 2.262624 -0.909813
v -0.928581 2.334043 -0.909813
v -0.928581 2.262624 -0.981233
v -1.000000 2.262624 0.787798
v -0.745875 2.081022 0.876507
v -0.928581 2.334043 0.781433
v 0.745875 2.081022 0.876507
v 1.000000 2.262624 0.787798
v 0.928581 2.334043 0.781433
v 1.000000 2.262624 -0.909813
v 0.928581 2.262624 -0.981233
v 0.928581 2.334043 -0.909813
v 1.000000 0.630811 -0.909813
v 1.000000 0.487972 -0.909813
v 0.928581 0.487972 -0.981233
v 0.928581 0.630811 -0.981233
v 1.000000 0.487972 0.947348
v 1.000000 0.630811 0.940359
v 0.928581 0.630501 1.012119
v 0.928581 0.487972 1.018767
v -1.000000 0.630811 0.940359
v -1.000000 0.487972 0.947348
v -0.928581 0.487972 1.018767
v -0.928581 0.630501 1.012119
v -1.000000 0.487972 -0.909813
v -1.000000 0.630811 -0.909813
v -0.928581 0.630811 -0.981233
v -0.928581 0.487972 -0.981233
v 0.928581 0.708881 -0.981233
v 1.000000 0.708881 -0.909813
v -0.745875 0.890512 0.987810
v -1.000000 0.708881 0.933061
v 0.745875 0.890512 0.987810
v 1.000000 0.708881 0.933061
v -0.928581 0.708881 -0.981233
v -1.000000 0.708881 -0.909813
v -0.928581 2.262934 0.859500
v 0.928581 2.262934 0.859500
v -0.928581 0.708600 1.004818
v 0.928581 0.708600 1.004818
v -0.745875 2.077484 0.838663
v 0.745875 2.077484 0.838663
v -0.745875 0.886974 0.949966
v 0.745875 0.886974 0.949966
vn -0.1857 -0.9806 0.0621
vn -0.0925 -0.9914 0.0925
vn -0.0621 -0.9806 0.1857
vn 0.0621 -0.9806 0.1857
vn 0.0925 -0.9914 0.0925
vn 0.1857 -0.9806 0.0621
vn -0.1857 -0.9806 -0.0621
vn -0.0621 -0.9806 -0.1857
vn -0.0925 -0.9914 -0.0925
vn 0.1857 -0.9806 -0.0621
vn 0.0925 -0.9914 -0.0925
vn 0.0621 -0.9806 -0.1857
vn -0.5773 0.5774 -0.5773
vn -0.5619 0.6115 0.5570
vn 0.5619 0.6115 0.5570
vn 0.5773 0.5774 -0.5773
vn 0.7071 -0.0000 -0.7071
vn 0.7074 0.0171 0.7066
vn 0.7074 0.0503 0.7050
vn 0.7074 0.0492 0.7051
vn 0.7074 0.0167 0.7066
vn -0.7074 0.0503 0.7050
vn -0.7074 0.0171 0.7066
vn -0.7074 0.0167 0.7066
vn -0.7074 0.0492 0.7051
vn -0.7071 -0.0000 -0.7071
vn -0.7071 0.7071 -0.0000
vn -0.0000 0.7393 0.6734
vn 0.7071 0.7071 -0.0000
vn -0.0000 0.7071 -0.7071
vn 0.7071 -0.0000 0.7071
vn -0.7071 0.0658 0.7040
vn 0.7071 0.0658 0.7040
vn -0.7071 -0.0000 0.7071
vn -0.0000 0.0699 0.9976
vn -0.0000 0.0233 0.9997
vn -0.0000 -0.0000 -1.0000
vn -1.0000 -0.0000 -0.0000
vn 1.0000 -0.0000 -0.0000
vn -0.0000 -0.0000 1.0000
vn -0.0000 1.0000 -0.0000
vn -0.0000 0.0931 0.9957
vn -0.0000 -0.9957 0.0931
vn -0.0000 0.9957 -0.0931
vt 0.013230 0.047995
vt 0.047995 0.047995
vt 0.047995 0.013230
vt 0.952005 0.013230
vt 0.952005 0.047995
vt 0.986770 0.047995
vt 0.013230 0.952005
vt 0.047995 0.986770
vt 0.047995 0.952005
vt 0.986770 0.952005
vt 0.952005 0.952005
vt 0.952005 0.986770
vt 0.013230 0.949478
vt 0.047995 0.948860
vt 0.047995 0.986770
vt 0.013230 0.050603
vt 0.047995 0.051140
vt 0.952005 0.013230
vt 0.986770 0.050603
vt 0.952005 0.051140
vt 0.986770 0.949478
vt 0.952005 0.986770
vt 0.952005 0.948860
vt 0.986770 0.951412
vt 0.952005 0.986770
vt 0.986770 0.048668
vt 0.952005 0.013230
vt 0.013230 0.048668
vt 0.013230 0.951412
vt 0.254977 0.949450
vt 0.752177 0.949450
vt 0.752177 0.962142
vt 0.254977 0.962142
vt 0.986770 0.951320
vt 0.013230 0.048761
vt 0.952005 0.013230
vt 0.986770 0.048761
vt 0.013230 0.951320
vt 0.752177 0.718783
vt 0.254977 0.718783
vt 0.254977 0.712510
vt 0.752177 0.712510
vt 0.746272 0.665478
vt 0.249463 0.665478
vt 0.249463 0.630715
vt 0.748149 0.630715
vt 0.748149 0.665478
vt 0.251340 0.665478
vt 0.249463 0.001128
vt 0.748149 0.001128
vt 0.254977 0.144016
vt 0.752177 0.144016
vt 0.249463 0.001128
vt 0.748149 0.001128
vt 0.249463 0.684478
vt 0.744312 0.684478
vt 0.705306 0.953070
vt 0.249463 0.953070
vt 0.863070 0.013230
vt 0.863070 0.013230
vt 0.253300 0.684478
vt 0.748149 0.684478
vt 0.748149 0.953070
vt 0.292305 0.953070
vt 0.752177 0.723140
vt 0.254977 0.723140
vt 0.303115 0.899499
vt 0.696852 0.899499
vt 0.303115 0.736254
vt 0.696852 0.736254
vt 0.303115 0.735726
vt 0.696852 0.735726
vt 0.696852 0.898971
vt 0.303115 0.898971
vt 0.136930 0.013230
s 1
g Plane_Material.001
usemtl Material.001
f 1/1/1 2/2/2 3/3/3
f 4/4/4 5/5/5 6/6/6
f 7/7/7 8/8/8 9/9/9
f 10/10/10 11/11/11 12/12/12
s 2
f 13/13/13 14/14/13 15/15/13
s 5
f 22/21/16 23/22/16 24/23/16
s 6
f 25/24/17 26/10/17 27/22/17 28/25/17
s 9
f 37/7/26 38/29/26 39/15/26 40/8/26
s 1
f 9/9/9 2/2/2 1/1/1 7/7/7
f 2/2/2 5/5/5 4/4/4 3/3/3
f 5/5/5 11/11/11 10/10/10 6/6/6
f 11/11/11 9/9/9 8/8/8 12/12/12
s 13
f 23/22/30 15/15/30 14/14/30 24/23/30
s 6
f 41/25/17 23/22/17 22/21/17 42/34/17
s 9
f 40/8/26 8/8/26 7/7/26 37/7/26
s 6
f 12/12/17 27/22/17 26/10/17 10/10/17
s 9
f 47/15/26 39/15/26 38/29/26 48/38/26
s 15
f 39/15/37 28/25/37 27/22/37 40/8/37
s 1
f 2/2/2 9/9/9 11/11/11 5/5/5
s 15
f 12/12/37 8/8/37 40/8/37 27/22/37
f 41/25/37 47/15/37 15/15/37 23/22/37
s 19
f 45/59/38 19/60/38 54/60/38 56/59/38
s 15
f 28/25/37 39/15/37 47/15/37 41/25/37
s 9
f 15/15/26 47/15/26 48/38/26 13/13/26
s 6
f 28/25/17 41/25/17 42/34/17 25/24/17
s 22
f 43/75/44 45/59/44 56/59/44 55/75/44
s 14
g Plane_Material.002
usemtl Material.002
f 31/39/35 36/40/35 35/41/36 32/42/36
f 3/51/40 4/52/40 32/42/36 35/41/36
f 36/40/35 31/39/35 52/65/42 51/66/42
f 17/67/42 19/68/42 50/31/42 49/30/42
f 43/69/42 17/67/42 49/30/42 51/66/42
f 19/68/42 45/70/42 52/65/42 50/31/42
f 45/70/42 43/69/42 51/66/42 52/65/42
s 20
f 55/71/42 56/72/42 54/73/42 53/74/42
s 21
f 19/68/43 17/67/43 53/74/43 54/73/43
s 23
f 17/67/39 43/69/39 55/71/39 53/74/39
s 3
g Plane_Material.003
usemtl Material.003
f 16/16/14 49/3/14 18/17/14
s 4
f 50/18/15 20/19/15 21/20/15
s 7
f 29/6/18 30/26/19 31/27/20 32/4/21
s 8
f 33/28/22 34/1/23 35/3/24 36/3/25
s 10
f 13/13/27 16/16/27 18/17/27 14/14/27
s 11
f 49/30/28 50/31/28 21/32/28 18/33/28
s 12
f 20/19/29 22/21/29 24/23/29 21/20/29
s 7
f 32/4/21 4/4/31 6/6/31 29/6/18
s 8
f 51/3/32 49/3/32 16/16/32 44/35/32
s 7
f 52/36/33 31/27/20 30/26/19 46/37/33
s 8
f 3/3/34 35/3/24 34/1/23 1/1/34
s 18
f 18/17/41 21/20/41 24/23/41 14/14/41
s 7
f 50/18/33 52/36/33 46/37/33 20/19/33
s 8
f 36/3/25 51/3/32 44/35/32 33/28/22
s 17
g Plane_Material.004
usemtl Material.004
f 25/47/39 30/48/39 29/45/39 26/46/39
f 6/53/39 10/54/39 26/46/39 29/45/39
f 46/61/39 42/62/39 22/63/39 20/64/39
f 30/48/39 25/47/39 42/62/39 46/61/39
s 16
g Plane_Material.004
usemtl Material.004
f 33/43/38 38/44/38 37/45/38 34/46/38
f 7/49/38 1/50/38 34/46/38 37/45/38
f 48/55/38 44/56/38 16/57/38 13/58/38
f 38/44/38 33/43/38 44/56/38 48/55/38
